<mxfile host="app.diagrams.net" modified="2024-02-28T22:13:14.976Z" agent="Mozilla/5.0 (Windows NT 10.0; Win64; x64) AppleWebKit/537.36 (KHTML, like Gecko) Chrome/121.0.0.0 Safari/537.36" etag="ntJHmhUhyYNXRFruujml" version="23.1.8" type="github">
  <diagram id="R2lEEEUBdFMjLlhIrx00" name="Page-1">
    <mxGraphModel dx="1434" dy="746" grid="1" gridSize="10" guides="1" tooltips="1" connect="1" arrows="1" fold="1" page="1" pageScale="1" pageWidth="850" pageHeight="1100" math="0" shadow="0" extFonts="Permanent Marker^https://fonts.googleapis.com/css?family=Permanent+Marker">
      <root>
        <mxCell id="0" />
        <mxCell id="1" parent="0" />
        <mxCell id="H1tVyCDsU0ZkutmIfU3P-40" style="edgeStyle=orthogonalEdgeStyle;rounded=0;orthogonalLoop=1;jettySize=auto;html=1;" edge="1" parent="1" source="H1tVyCDsU0ZkutmIfU3P-13" target="H1tVyCDsU0ZkutmIfU3P-28">
          <mxGeometry relative="1" as="geometry" />
        </mxCell>
        <mxCell id="H1tVyCDsU0ZkutmIfU3P-13" value="" style="shape=umlBoundary;whiteSpace=wrap;html=1;" vertex="1" parent="1">
          <mxGeometry x="400" y="410" width="100" height="80" as="geometry" />
        </mxCell>
        <mxCell id="H1tVyCDsU0ZkutmIfU3P-14" value="Sistema" style="text;html=1;align=center;verticalAlign=middle;whiteSpace=wrap;rounded=0;" vertex="1" parent="1">
          <mxGeometry x="420" y="500" width="60" height="30" as="geometry" />
        </mxCell>
        <mxCell id="H1tVyCDsU0ZkutmIfU3P-22" value="Bibliotecario" style="shape=umlActor;verticalLabelPosition=bottom;verticalAlign=top;html=1;outlineConnect=0;" vertex="1" parent="1">
          <mxGeometry x="240" y="420" width="30" height="60" as="geometry" />
        </mxCell>
        <object label="Lector" id="H1tVyCDsU0ZkutmIfU3P-23">
          <mxCell style="shape=umlActor;verticalLabelPosition=bottom;verticalAlign=top;html=1;outlineConnect=0;" vertex="1" parent="1">
            <mxGeometry x="80" y="420" width="30" height="60" as="geometry" />
          </mxCell>
        </object>
        <mxCell id="H1tVyCDsU0ZkutmIfU3P-25" value="" style="endArrow=classic;html=1;rounded=0;exitX=0.5;exitY=0.5;exitDx=0;exitDy=0;exitPerimeter=0;entryX=0.5;entryY=0.5;entryDx=0;entryDy=0;entryPerimeter=0;" edge="1" parent="1" source="H1tVyCDsU0ZkutmIfU3P-23" target="H1tVyCDsU0ZkutmIfU3P-22">
          <mxGeometry width="50" height="50" relative="1" as="geometry">
            <mxPoint x="400" y="410" as="sourcePoint" />
            <mxPoint x="450" y="360" as="targetPoint" />
          </mxGeometry>
        </mxCell>
        <mxCell id="H1tVyCDsU0ZkutmIfU3P-26" value="1:SolicitarPrestamo()" style="text;html=1;align=center;verticalAlign=middle;whiteSpace=wrap;rounded=0;" vertex="1" parent="1">
          <mxGeometry x="150" y="420" width="60" height="30" as="geometry" />
        </mxCell>
        <mxCell id="H1tVyCDsU0ZkutmIfU3P-28" value="" style="ellipse;shape=umlControl;whiteSpace=wrap;html=1;" vertex="1" parent="1">
          <mxGeometry x="650" y="410" width="70" height="80" as="geometry" />
        </mxCell>
        <mxCell id="H1tVyCDsU0ZkutmIfU3P-29" value="controlPrestamo" style="text;align=center;fontStyle=1;verticalAlign=middle;spacingLeft=3;spacingRight=3;strokeColor=none;rotatable=0;points=[[0,0.5],[1,0.5]];portConstraint=eastwest;html=1;" vertex="1" parent="1">
          <mxGeometry x="645" y="502" width="80" height="26" as="geometry" />
        </mxCell>
        <mxCell id="H1tVyCDsU0ZkutmIfU3P-30" value=":ObtenerCantCopias()" style="text;align=center;fontStyle=1;verticalAlign=middle;spacingLeft=3;spacingRight=3;strokeColor=none;rotatable=0;points=[[0,0.5],[1,0.5]];portConstraint=eastwest;html=1;" vertex="1" parent="1">
          <mxGeometry x="830" y="244" width="80" height="26" as="geometry" />
        </mxCell>
        <mxCell id="H1tVyCDsU0ZkutmIfU3P-31" value="" style="endArrow=classic;html=1;rounded=0;exitX=0.5;exitY=0.5;exitDx=0;exitDy=0;exitPerimeter=0;entryX=0.14;entryY=0.5;entryDx=0;entryDy=0;entryPerimeter=0;" edge="1" parent="1" source="H1tVyCDsU0ZkutmIfU3P-22" target="H1tVyCDsU0ZkutmIfU3P-13">
          <mxGeometry width="50" height="50" relative="1" as="geometry">
            <mxPoint x="400" y="410" as="sourcePoint" />
            <mxPoint x="450" y="360" as="targetPoint" />
          </mxGeometry>
        </mxCell>
        <mxCell id="H1tVyCDsU0ZkutmIfU3P-36" value="" style="edgeStyle=orthogonalEdgeStyle;rounded=0;orthogonalLoop=1;jettySize=auto;html=1;exitX=0.929;exitY=0.363;exitDx=0;exitDy=0;exitPerimeter=0;" edge="1" parent="1" source="H1tVyCDsU0ZkutmIfU3P-28" target="H1tVyCDsU0ZkutmIfU3P-33">
          <mxGeometry relative="1" as="geometry" />
        </mxCell>
        <mxCell id="H1tVyCDsU0ZkutmIfU3P-32" value=":SolicitarInformacionLector()" style="text;align=center;fontStyle=1;verticalAlign=middle;spacingLeft=3;spacingRight=3;strokeColor=none;rotatable=0;points=[[0,0.5],[1,0.5]];portConstraint=eastwest;html=1;" vertex="1" parent="1">
          <mxGeometry x="645" y="330" width="80" height="26" as="geometry" />
        </mxCell>
        <mxCell id="H1tVyCDsU0ZkutmIfU3P-61" style="edgeStyle=orthogonalEdgeStyle;rounded=0;orthogonalLoop=1;jettySize=auto;html=1;exitX=1;exitY=0.5;exitDx=0;exitDy=0;entryX=0;entryY=0.5;entryDx=0;entryDy=0;" edge="1" parent="1" source="H1tVyCDsU0ZkutmIfU3P-33" target="H1tVyCDsU0ZkutmIfU3P-45">
          <mxGeometry relative="1" as="geometry" />
        </mxCell>
        <mxCell id="H1tVyCDsU0ZkutmIfU3P-33" value=":Libro" style="ellipse;shape=umlEntity;whiteSpace=wrap;html=1;" vertex="1" parent="1">
          <mxGeometry x="840" y="278" width="80" height="80" as="geometry" />
        </mxCell>
        <mxCell id="H1tVyCDsU0ZkutmIfU3P-52" style="edgeStyle=orthogonalEdgeStyle;rounded=0;orthogonalLoop=1;jettySize=auto;html=1;exitX=1;exitY=0.5;exitDx=0;exitDy=0;entryX=0;entryY=0.5;entryDx=0;entryDy=0;" edge="1" parent="1" source="H1tVyCDsU0ZkutmIfU3P-34" target="H1tVyCDsU0ZkutmIfU3P-48">
          <mxGeometry relative="1" as="geometry" />
        </mxCell>
        <mxCell id="H1tVyCDsU0ZkutmIfU3P-34" value=":Lector" style="ellipse;shape=umlEntity;whiteSpace=wrap;html=1;" vertex="1" parent="1">
          <mxGeometry x="840" y="560" width="80" height="80" as="geometry" />
        </mxCell>
        <mxCell id="H1tVyCDsU0ZkutmIfU3P-35" value=":SeleccionarLibro" style="text;align=center;fontStyle=1;verticalAlign=middle;spacingLeft=3;spacingRight=3;strokeColor=none;rotatable=0;points=[[0,0.5],[1,0.5]];portConstraint=eastwest;html=1;" vertex="1" parent="1">
          <mxGeometry x="645" y="358" width="80" height="26" as="geometry" />
        </mxCell>
        <mxCell id="H1tVyCDsU0ZkutmIfU3P-38" style="edgeStyle=orthogonalEdgeStyle;rounded=0;orthogonalLoop=1;jettySize=auto;html=1;entryX=0;entryY=0.5;entryDx=0;entryDy=0;" edge="1" parent="1" source="H1tVyCDsU0ZkutmIfU3P-28" target="H1tVyCDsU0ZkutmIfU3P-34">
          <mxGeometry relative="1" as="geometry" />
        </mxCell>
        <mxCell id="H1tVyCDsU0ZkutmIfU3P-63" value="" style="edgeStyle=orthogonalEdgeStyle;rounded=0;orthogonalLoop=1;jettySize=auto;html=1;" edge="1" parent="1" source="H1tVyCDsU0ZkutmIfU3P-41" target="H1tVyCDsU0ZkutmIfU3P-29">
          <mxGeometry relative="1" as="geometry" />
        </mxCell>
        <mxCell id="H1tVyCDsU0ZkutmIfU3P-41" value=":ObtenerLibrosEnPrestamo()" style="text;align=center;fontStyle=1;verticalAlign=middle;spacingLeft=3;spacingRight=3;strokeColor=none;rotatable=0;points=[[0,0.5],[1,0.5]];portConstraint=eastwest;html=1;" vertex="1" parent="1">
          <mxGeometry x="840" y="524" width="80" height="26" as="geometry" />
        </mxCell>
        <mxCell id="H1tVyCDsU0ZkutmIfU3P-42" value=":RegistrarPrestamo" style="text;align=center;fontStyle=1;verticalAlign=middle;spacingLeft=3;spacingRight=3;strokeColor=none;rotatable=0;points=[[0,0.5],[1,0.5]];portConstraint=eastwest;html=1;" vertex="1" parent="1">
          <mxGeometry x="645" y="380" width="80" height="26" as="geometry" />
        </mxCell>
        <mxCell id="H1tVyCDsU0ZkutmIfU3P-43" value=":ObtenerDatosLetor()" style="text;align=center;fontStyle=1;verticalAlign=middle;spacingLeft=3;spacingRight=3;strokeColor=none;rotatable=0;points=[[0,0.5],[1,0.5]];portConstraint=eastwest;html=1;" vertex="1" parent="1">
          <mxGeometry x="830" y="498" width="80" height="26" as="geometry" />
        </mxCell>
        <mxCell id="H1tVyCDsU0ZkutmIfU3P-44" value=":ObtenerNombre()" style="text;align=center;fontStyle=1;verticalAlign=middle;spacingLeft=3;spacingRight=3;strokeColor=none;rotatable=0;points=[[0,0.5],[1,0.5]];portConstraint=eastwest;html=1;" vertex="1" parent="1">
          <mxGeometry x="830" y="218" width="80" height="26" as="geometry" />
        </mxCell>
        <mxCell id="H1tVyCDsU0ZkutmIfU3P-62" style="edgeStyle=orthogonalEdgeStyle;rounded=0;orthogonalLoop=1;jettySize=auto;html=1;entryX=0;entryY=0.5;entryDx=0;entryDy=0;" edge="1" parent="1" source="H1tVyCDsU0ZkutmIfU3P-45" target="H1tVyCDsU0ZkutmIfU3P-46">
          <mxGeometry relative="1" as="geometry" />
        </mxCell>
        <mxCell id="H1tVyCDsU0ZkutmIfU3P-45" value=":Copia" style="ellipse;shape=umlEntity;whiteSpace=wrap;html=1;" vertex="1" parent="1">
          <mxGeometry x="1020" y="278" width="80" height="80" as="geometry" />
        </mxCell>
        <mxCell id="H1tVyCDsU0ZkutmIfU3P-46" value=":Estado" style="ellipse;shape=umlEntity;whiteSpace=wrap;html=1;" vertex="1" parent="1">
          <mxGeometry x="1190" y="278" width="80" height="80" as="geometry" />
        </mxCell>
        <mxCell id="H1tVyCDsU0ZkutmIfU3P-47" value=":SolicitarEstado()" style="text;align=center;fontStyle=1;verticalAlign=middle;spacingLeft=3;spacingRight=3;strokeColor=none;rotatable=0;points=[[0,0.5],[1,0.5]];portConstraint=eastwest;html=1;" vertex="1" parent="1">
          <mxGeometry x="1020" y="240" width="80" height="26" as="geometry" />
        </mxCell>
        <mxCell id="H1tVyCDsU0ZkutmIfU3P-48" value=":Prestamo" style="ellipse;shape=umlEntity;whiteSpace=wrap;html=1;" vertex="1" parent="1">
          <mxGeometry x="1140" y="560" width="80" height="80" as="geometry" />
        </mxCell>
        <mxCell id="H1tVyCDsU0ZkutmIfU3P-49" value=":Persona" style="ellipse;shape=umlEntity;whiteSpace=wrap;html=1;" vertex="1" parent="1">
          <mxGeometry x="850" y="730" width="80" height="80" as="geometry" />
        </mxCell>
        <mxCell id="H1tVyCDsU0ZkutmIfU3P-50" value="MostarDatos()" style="text;align=center;fontStyle=1;verticalAlign=middle;spacingLeft=3;spacingRight=3;strokeColor=none;rotatable=0;points=[[0,0.5],[1,0.5]];portConstraint=eastwest;html=1;" vertex="1" parent="1">
          <mxGeometry x="850" y="830" width="80" height="26" as="geometry" />
        </mxCell>
        <mxCell id="H1tVyCDsU0ZkutmIfU3P-51" value="" style="endArrow=classic;html=1;rounded=0;exitX=0.5;exitY=1;exitDx=0;exitDy=0;entryX=0.413;entryY=0.013;entryDx=0;entryDy=0;entryPerimeter=0;" edge="1" parent="1" source="H1tVyCDsU0ZkutmIfU3P-34" target="H1tVyCDsU0ZkutmIfU3P-49">
          <mxGeometry width="50" height="50" relative="1" as="geometry">
            <mxPoint x="730" y="610" as="sourcePoint" />
            <mxPoint x="780" y="560" as="targetPoint" />
          </mxGeometry>
        </mxCell>
        <mxCell id="H1tVyCDsU0ZkutmIfU3P-53" value=":DatosLector()" style="text;align=center;fontStyle=1;verticalAlign=middle;spacingLeft=3;spacingRight=3;strokeColor=none;rotatable=0;points=[[0,0.5],[1,0.5]];portConstraint=eastwest;html=1;" vertex="1" parent="1">
          <mxGeometry x="1130" y="480" width="80" height="26" as="geometry" />
        </mxCell>
        <mxCell id="H1tVyCDsU0ZkutmIfU3P-54" value=":CrearPrestamo()" style="text;align=center;fontStyle=1;verticalAlign=middle;spacingLeft=3;spacingRight=3;strokeColor=none;rotatable=0;points=[[0,0.5],[1,0.5]];portConstraint=eastwest;html=1;" vertex="1" parent="1">
          <mxGeometry x="1130" y="454" width="80" height="26" as="geometry" />
        </mxCell>
        <mxCell id="H1tVyCDsU0ZkutmIfU3P-55" value=":ObtenerCopiasLibros()" style="text;align=center;fontStyle=1;verticalAlign=middle;spacingLeft=3;spacingRight=3;strokeColor=none;rotatable=0;points=[[0,0.5],[1,0.5]];portConstraint=eastwest;html=1;" vertex="1" parent="1">
          <mxGeometry x="1140" y="506" width="80" height="26" as="geometry" />
        </mxCell>
        <mxCell id="H1tVyCDsU0ZkutmIfU3P-57" value=":ConocerEstadoPrestamo()" style="text;align=center;fontStyle=1;verticalAlign=middle;spacingLeft=3;spacingRight=3;strokeColor=none;rotatable=0;points=[[0,0.5],[1,0.5]];portConstraint=eastwest;html=1;" vertex="1" parent="1">
          <mxGeometry x="1130" y="424" width="80" height="26" as="geometry" />
        </mxCell>
        <mxCell id="H1tVyCDsU0ZkutmIfU3P-58" value=":CalcularFechaDevolucion()" style="text;align=center;fontStyle=1;verticalAlign=middle;spacingLeft=3;spacingRight=3;strokeColor=none;rotatable=0;points=[[0,0.5],[1,0.5]];portConstraint=eastwest;html=1;" vertex="1" parent="1">
          <mxGeometry x="1140" y="534" width="80" height="26" as="geometry" />
        </mxCell>
      </root>
    </mxGraphModel>
  </diagram>
</mxfile>
